#define betterave_width 230
#define betterave_height 219
static unsigned char betterave_bits[] = {
   0x00, 0x00, 0x00, 0x00, 0x00, 0x00, 0x00, 0x00, 0x00, 0x00, 0x00, 0x00,
   0x00, 0x00, 0x00, 0x00, 0x00, 0x00, 0x00, 0x00, 0x00, 0x00, 0x00, 0x00,
   0x00, 0x00, 0x00, 0x00, 0x00, 0x00, 0x00, 0x00, 0x00, 0x00, 0x00, 0x00,
   0x00, 0x00, 0x00, 0x00, 0x00, 0x00, 0x00, 0x00, 0x00, 0xc0, 0x03, 0x00,
   0x00, 0x00, 0x00, 0x00, 0x00, 0x00, 0x00, 0x00, 0x00, 0x00, 0x00, 0x00,
   0x00, 0x00, 0x00, 0x00, 0x00, 0x00, 0x00, 0x00, 0x00, 0x00, 0x00, 0x00,
   0x00, 0x00, 0xa0, 0x0e, 0x00, 0x00, 0x00, 0x00, 0x00, 0x00, 0x00, 0x00,
   0x00, 0x00, 0x00, 0x00, 0x00, 0x00, 0x00, 0x00, 0x00, 0x00, 0x00, 0x00,
   0x00, 0x00, 0x00, 0x00, 0x00, 0x00, 0x00, 0xb0, 0x0a, 0x00, 0x00, 0x00,
   0x00, 0x00, 0x00, 0x00, 0x00, 0x00, 0x00, 0x00, 0x00, 0x00, 0x00, 0x00,
   0x00, 0x00, 0x00, 0x00, 0x00, 0x00, 0x00, 0x00, 0x00, 0x00, 0x00, 0x00,
   0xd0, 0x1b, 0x00, 0x00, 0x00, 0x00, 0x00, 0x00, 0x00, 0x00, 0x00, 0x00,
   0x00, 0x00, 0x00, 0x00, 0x00, 0x00, 0x00, 0x00, 0x00, 0x00, 0x00, 0x00,
   0x00, 0x00, 0x00, 0x00, 0x00, 0x78, 0x2b, 0x00, 0x00, 0x00, 0x00, 0x00,
   0x00, 0x00, 0x00, 0x00, 0x00, 0x00, 0x00, 0x00, 0x00, 0x00, 0x00, 0x00,
   0x00, 0x00, 0x00, 0x00, 0x00, 0x00, 0x00, 0x00, 0x00, 0x00, 0xa8, 0x1d,
   0x00, 0x00, 0x00, 0x00, 0x00, 0x00, 0x00, 0x00, 0x00, 0x00, 0x00, 0x00,
   0x00, 0x00, 0x00, 0x00, 0x00, 0x00, 0x00, 0x00, 0x00, 0x00, 0x00, 0x00,
   0x00, 0x00, 0x00, 0xb8, 0x75, 0x00, 0x00, 0x00, 0x00, 0x00, 0x00, 0x00,
   0x00, 0x00, 0x00, 0x00, 0x00, 0x00, 0x00, 0x00, 0x00, 0x00, 0x00, 0x00,
   0x00, 0x00, 0x00, 0x00, 0x00, 0x00, 0x00, 0x00, 0xd4, 0x57, 0x00, 0x00,
   0x00, 0x00, 0x00, 0x00, 0x00, 0x00, 0x00, 0x00, 0x00, 0x00, 0x00, 0x00,
   0x00, 0x00, 0x00, 0x00, 0x00, 0x00, 0x00, 0x00, 0x00, 0x00, 0x00, 0x00,
   0x00, 0x7c, 0x5d, 0x00, 0x00, 0x00, 0x00, 0x00, 0x00, 0x00, 0x00, 0x00,
   0x00, 0x00, 0x00, 0x00, 0x00, 0x00, 0x00, 0x00, 0x00, 0x00, 0x00, 0x00,
   0x00, 0x00, 0x00, 0x00, 0x00, 0x00, 0xea, 0x6b, 0x00, 0x00, 0x00, 0x00,
   0x00, 0x00, 0x00, 0x00, 0x00, 0x00, 0x00, 0x00, 0x00, 0x00, 0x00, 0x00,
   0x00, 0x00, 0x00, 0x00, 0x00, 0x00, 0x00, 0x00, 0x00, 0xe0, 0x0d, 0xbe,
   0x2e, 0x00, 0x00, 0x00, 0x00, 0x00, 0x00, 0x00, 0x00, 0x00, 0x00, 0x00,
   0x00, 0x00, 0x00, 0x00, 0x00, 0x00, 0x00, 0x00, 0x00, 0x00, 0x00, 0x00,
   0x00, 0x00, 0xb0, 0x3b, 0xf5, 0x3d, 0x7d, 0x00, 0x00, 0x00, 0x00, 0x00,
   0x00, 0x00, 0x00, 0x00, 0x00, 0x00, 0x00, 0x00, 0x00, 0x00, 0x00, 0x00,
   0x00, 0x00, 0x00, 0x00, 0x00, 0x00, 0x00, 0xb0, 0x6a, 0xbf, 0x75, 0x55,
   0x00, 0x00, 0x00, 0x00, 0x00, 0x00, 0x00, 0x00, 0x00, 0x00, 0x00, 0x00,
   0x00, 0x00, 0x00, 0x00, 0x00, 0x00, 0x00, 0x00, 0x00, 0x00, 0x00, 0x00,
   0xf0, 0xaf, 0x6d, 0xaf, 0xed, 0x00, 0x00, 0x00, 0x00, 0x00, 0x00, 0x00,
   0x00, 0x00, 0x00, 0x00, 0x00, 0x00, 0x00, 0x00, 0x00, 0x00, 0x00, 0x00,
   0x00, 0x00, 0x00, 0x00, 0x00, 0xa0, 0xfa, 0x6d, 0xfd, 0x2d, 0x00, 0x00,
   0x00, 0x00, 0x00, 0x00, 0x00, 0x00, 0x00, 0x00, 0x00, 0x00, 0x00, 0x00,
   0x00, 0x00, 0x00, 0x00, 0x00, 0x00, 0x00, 0x00, 0x00, 0x00, 0xf0, 0x57,
   0xbf, 0xab, 0x77, 0x00, 0x00, 0x00, 0x00, 0x00, 0x00, 0x00, 0x00, 0x00,
   0x00, 0x00, 0x00, 0x00, 0x00, 0x00, 0x00, 0x00, 0x00, 0x00, 0x00, 0x00,
   0x00, 0x00, 0x00, 0xb0, 0xfe, 0xf6, 0xbe, 0x3e, 0x00, 0x00, 0x00, 0x00,
   0x00, 0x00, 0x00, 0x00, 0x40, 0x00, 0x00, 0x00, 0x00, 0x00, 0x00, 0x00,
   0x00, 0x00, 0x00, 0x00, 0x00, 0x00, 0x00, 0x00, 0xd0, 0xab, 0x5f, 0xeb,
   0x35, 0x00, 0x00, 0x00, 0x00, 0x00, 0x00, 0x00, 0x00, 0xbc, 0x01, 0x00,
   0x00, 0x00, 0x00, 0x00, 0x00, 0x00, 0x00, 0x00, 0x00, 0x00, 0x00, 0x00,
   0x00, 0xb0, 0xfe, 0xf6, 0x7f, 0x0f, 0x00, 0x00, 0x00, 0x00, 0x00, 0x00,
   0x00, 0x80, 0x6b, 0x07, 0x00, 0x00, 0x00, 0x00, 0x00, 0x00, 0x00, 0x00,
   0x00, 0x00, 0x00, 0x00, 0x00, 0x00, 0xf0, 0xd7, 0x5f, 0xed, 0x0d, 0x00,
   0x00, 0x00, 0x00, 0x00, 0x00, 0x00, 0x40, 0xdd, 0x0a, 0x00, 0x00, 0x00,
   0x00, 0x00, 0x00, 0x00, 0x00, 0x00, 0x00, 0x00, 0x00, 0x00, 0x00, 0xa0,
   0xbe, 0xf6, 0xaf, 0x05, 0x00, 0x00, 0x00, 0x00, 0x00, 0x00, 0x00, 0xb8,
   0x5b, 0x0b, 0x00, 0x00, 0x00, 0x00, 0x00, 0x00, 0x00, 0x00, 0x00, 0x00,
   0x00, 0x00, 0x00, 0x00, 0xe0, 0xfb, 0xdf, 0xff, 0x02, 0x00, 0x00, 0x00,
   0x00, 0x00, 0x00, 0x00, 0xd4, 0xea, 0x16, 0x00, 0x00, 0x00, 0x00, 0x00,
   0x00, 0x00, 0x00, 0x00, 0x00, 0x00, 0x00, 0x00, 0x00, 0x60, 0xaf, 0xda,
   0xd5, 0x01, 0x00, 0x00, 0x00, 0x00, 0x00, 0x00, 0x00, 0xbb, 0xaf, 0x15,
   0x00, 0x00, 0x00, 0x00, 0x00, 0x00, 0x00, 0x00, 0x00, 0x00, 0x00, 0x00,
   0x00, 0x00, 0xc0, 0xfd, 0x7f, 0x7f, 0x00, 0x00, 0x00, 0x00, 0x00, 0x00,
   0x3d, 0x80, 0xd6, 0xba, 0x2e, 0x00, 0x00, 0x00, 0x00, 0x00, 0x00, 0x00,
   0x00, 0x00, 0x00, 0x00, 0x00, 0x00, 0x00, 0xc0, 0x5b, 0xf7, 0x75, 0x00,
   0x00, 0x00, 0x00, 0x00, 0x40, 0x2b, 0xe0, 0x5e, 0xeb, 0x15, 0x00, 0x00,
   0x00, 0x00, 0x00, 0x00, 0x00, 0x00, 0x00, 0x00, 0x00, 0x00, 0x00, 0x00,
   0x41, 0xff, 0xbd, 0x1f, 0x00, 0x00, 0x00, 0x00, 0x00, 0xa0, 0x5d, 0x50,
   0xfb, 0x5d, 0x2d, 0x00, 0x00, 0x00, 0x00, 0x00, 0x00, 0x00, 0x00, 0x00,
   0x00, 0x00, 0x00, 0x00, 0xc0, 0xc7, 0xea, 0xff, 0x0a, 0x00, 0x00, 0x00,
   0x00, 0x00, 0xf0, 0x15, 0x7c, 0xab, 0xdb, 0x15, 0x00, 0x00, 0x00, 0x00,
   0x00, 0x00, 0x00, 0x00, 0x00, 0x00, 0x00, 0x00, 0x00, 0x60, 0x9d, 0xbf,
   0xaf, 0x07, 0x00, 0x00, 0x00, 0x00, 0x00, 0xac, 0x3b, 0xaa, 0x7d, 0x77,
   0x2f, 0x00, 0x00, 0x00, 0x00, 0x00, 0x00, 0x00, 0x00, 0x00, 0x00, 0x00,
   0x00, 0x00, 0xf0, 0xbb, 0xb6, 0xff, 0x06, 0x00, 0x00, 0x00, 0x00, 0x00,
   0xba, 0x0e, 0xb7, 0xd7, 0xd6, 0x15, 0x00, 0x00, 0x00, 0x00, 0x00, 0x00,
   0x00, 0x00, 0x00, 0x00, 0x00, 0x00, 0x00, 0xa8, 0xee, 0xfb, 0xd5, 0x51,
   0x00, 0x00, 0x00, 0x00, 0x00, 0x6d, 0x8b, 0xda, 0x7a, 0xbb, 0x0e, 0x00,
   0x00, 0x00, 0x00, 0x00, 0x00, 0x00, 0x00, 0x00, 0x00, 0x00, 0x00, 0x00,
   0xf8, 0x7d, 0xbf, 0xbf, 0x59, 0x00, 0x00, 0x00, 0x00, 0x80, 0x6f, 0xcf,
   0xbb, 0x6f, 0xef, 0x0b, 0x00, 0x00, 0x00, 0x00, 0x00, 0x00, 0x00, 0x00,
   0x00, 0x00, 0x00, 0x00, 0x00, 0xf8, 0xd7, 0xad, 0x75, 0xb4, 0x00, 0x00,
   0x00, 0x00, 0x40, 0xfd, 0x75, 0xf7, 0xda, 0xb5, 0x06, 0x00, 0x00, 0x00,
   0x00, 0x00, 0x00, 0x00, 0x00, 0x00, 0x00, 0x00, 0x00, 0x00, 0x00, 0xdf,
   0xfd, 0xef, 0x5a, 0x00, 0x00, 0x00, 0x04, 0xe0, 0x55, 0xd7, 0xde, 0xb7,
   0xed, 0x01, 0x00, 0x00, 0x00, 0x00, 0x00, 0x00, 0x00, 0x00, 0x00, 0x00,
   0x00, 0x00, 0x00, 0x00, 0x78, 0xd7, 0xba, 0xff, 0x00, 0x00, 0x00, 0x1d,
   0xb0, 0xff, 0x7a, 0x7b, 0xdd, 0xb6, 0x00, 0x00, 0x00, 0x00, 0x00, 0x00,
   0x00, 0x00, 0x00, 0x00, 0x00, 0x00, 0x00, 0x00, 0x00, 0xf8, 0xde, 0x77,
   0x57, 0x00, 0x00, 0xc0, 0x37, 0xf8, 0xd6, 0x6b, 0xd7, 0xb5, 0x2f, 0x00,
   0x00, 0x00, 0x00, 0x00, 0x00, 0x00, 0x00, 0x00, 0x00, 0x00, 0x00, 0x00,
   0x00, 0x00, 0xd0, 0xef, 0xde, 0x7b, 0x00, 0x00, 0xa0, 0x5a, 0x54, 0x7f,
   0xdf, 0x7b, 0xdf, 0x0a, 0x00, 0x00, 0x00, 0x00, 0x00, 0x00, 0x00, 0x00,
   0x00, 0x00, 0x00, 0x00, 0x00, 0x00, 0x00, 0xf0, 0xdf, 0x7b, 0x37, 0x00,
   0x00, 0xb0, 0x5b, 0xfe, 0xd5, 0x7a, 0x6f, 0xf5, 0x01, 0x00, 0x00, 0x00,
   0x00, 0x00, 0x00, 0x00, 0x00, 0x00, 0x00, 0x00, 0x00, 0x00, 0x00, 0x00,
   0x60, 0xef, 0xee, 0x1f, 0x00, 0x00, 0xf8, 0x6e, 0xb5, 0xff, 0xef, 0xda,
   0x1f, 0x00, 0x00, 0x00, 0x00, 0x00, 0x00, 0x00, 0x00, 0x00, 0x00, 0x00,
   0x00, 0x00, 0x00, 0x00, 0x00, 0xe0, 0xee, 0xbf, 0x0d, 0x00, 0x00, 0xda,
   0xdb, 0xf7, 0xaa, 0xfa, 0x7b, 0x03, 0x00, 0x00, 0x00, 0x00, 0x00, 0x00,
   0x00, 0x00, 0x00, 0x00, 0x00, 0x00, 0x00, 0x00, 0x00, 0x00, 0xe0, 0xf7,
   0xfa, 0x07, 0x00, 0x00, 0x6c, 0x7f, 0xdd, 0xff, 0xaf, 0xae, 0x00, 0x00,
   0x00, 0x00, 0x00, 0x00, 0x00, 0x00, 0x00, 0x00, 0x00, 0x00, 0x00, 0x00,
   0x00, 0x00, 0x00, 0xa0, 0xee, 0xdf, 0x01, 0x00, 0x00, 0xff, 0xd5, 0x7b,
   0x55, 0xfd, 0x2d, 0x00, 0x00, 0x00, 0x00, 0x00, 0x00, 0x00, 0x00, 0x00,
   0x00, 0x00, 0x00, 0x00, 0x00, 0x00, 0x00, 0x00, 0xc0, 0xeb, 0x7f, 0x00,
   0x00, 0x80, 0x6b, 0x7f, 0xf7, 0xbf, 0x57, 0xbf, 0x00, 0x00, 0x00, 0x00,
   0x00, 0x00, 0x00, 0x00, 0x00, 0x00, 0x00, 0x00, 0x00, 0x00, 0x00, 0x00,
   0x00, 0x40, 0xff, 0x77, 0x00, 0x00, 0x80, 0xff, 0xeb, 0xfd, 0xe6, 0x7f,
   0xb5, 0x05, 0x00, 0x00, 0x00, 0x00, 0x00, 0x00, 0x00, 0x00, 0x00, 0x00,
   0x00, 0x00, 0x00, 0x00, 0x00, 0x00, 0xef, 0xf5, 0x1f, 0x00, 0x00, 0xc0,
   0xba, 0xbe, 0x76, 0xfd, 0xdb, 0xdb, 0x2d, 0x00, 0x00, 0x00, 0x00, 0x00,
   0x00, 0x00, 0x00, 0x00, 0x00, 0x00, 0x00, 0x00, 0x00, 0x00, 0x00, 0xdd,
   0xf7, 0x0b, 0x00, 0x1e, 0xe0, 0xff, 0xf7, 0xff, 0x7d, 0xff, 0x5f, 0x2b,
   0x00, 0x00, 0x00, 0x00, 0x00, 0x00, 0x00, 0x00, 0x00, 0x00, 0x00, 0x00,
   0x00, 0x00, 0x00, 0x80, 0x77, 0xf9, 0x07, 0x00, 0x2a, 0xa0, 0x56, 0xdd,
   0x1e, 0xdf, 0x5d, 0xff, 0x2e, 0x00, 0x00, 0x00, 0x00, 0x00, 0x00, 0x00,
   0x00, 0x00, 0x00, 0x00, 0x00, 0x00, 0x00, 0x00, 0xc0, 0xfe, 0xf3, 0x05,
   0x00, 0x2f, 0xf0, 0xfe, 0xfb, 0xf5, 0xb7, 0xf7, 0xf5, 0x5a, 0x00, 0x00,
   0x00, 0x00, 0x00, 0x00, 0x00, 0x00, 0x00, 0x00, 0x00, 0x00, 0x00, 0x00,
   0x00, 0xc0, 0xdb, 0xf7, 0x03, 0x80, 0x7d, 0xd0, 0xaf, 0xaf, 0xf5, 0x7e,
   0x5d, 0xef, 0x6f, 0x00, 0x00, 0x00, 0x00, 0x00, 0x00, 0x00, 0x00, 0x00,
   0x00, 0x00, 0x00, 0x00, 0x00, 0x00, 0x60, 0x7f, 0xf5, 0x12, 0xc0, 0x2b,
   0xd8, 0xfe, 0x7d, 0xbd, 0xeb, 0xf5, 0x5a, 0x2d, 0x00, 0x00, 0x00, 0x00,
   0x00, 0x00, 0x00, 0x00, 0x00, 0x00, 0x00, 0x00, 0x00, 0x00, 0x00, 0xc0,
   0xef, 0xfb, 0x71, 0x40, 0x7f, 0xf8, 0xab, 0x8e, 0xef, 0xde, 0xdf, 0xef,
   0x36, 0x00, 0x00, 0x00, 0x00, 0x00, 0x00, 0x00, 0x00, 0x00, 0x00, 0x00,
   0x00, 0x00, 0x00, 0x00, 0xc0, 0x5d, 0x7b, 0x5d, 0xe0, 0x6d, 0x6c, 0xff,
   0xb5, 0xdf, 0xba, 0x5a, 0xdd, 0x1f, 0x00, 0x00, 0x00, 0x00, 0x00, 0x00,
   0x00, 0x00, 0x00, 0x00, 0x00, 0x00, 0x00, 0x00, 0x00, 0x00, 0xff, 0xf9,
   0x3a, 0xa0, 0x7f, 0xfc, 0xbb, 0xf5, 0xff, 0xeb, 0xf7, 0x7b, 0x1d, 0x00,
   0x00, 0x00, 0x00, 0x00, 0x00, 0x00, 0x00, 0x00, 0x00, 0x00, 0x00, 0x00,
   0x00, 0x00, 0x00, 0xbe, 0xdb, 0x2b, 0x70, 0xed, 0xae, 0x6f, 0xfd, 0x5e,
   0xbf, 0xae, 0xee, 0x0b, 0x00, 0x00, 0x00, 0x00, 0x00, 0x00, 0x00, 0x00,
   0x00, 0x00, 0x00, 0x00, 0x00, 0x00, 0x00, 0x00, 0xfa, 0x7c, 0x1f, 0xf0,
   0xbf, 0xfe, 0xaf, 0xdf, 0xfb, 0xd5, 0xfd, 0x17, 0x00, 0x00, 0x00, 0x00,
   0x00, 0x00, 0x00, 0x00, 0x00, 0x00, 0x00, 0x00, 0x00, 0x00, 0x00, 0x00,
   0x00, 0xfc, 0xfd, 0x0f, 0x78, 0xfb, 0xbb, 0xcb, 0xdb, 0xb6, 0xbf, 0xab,
   0x00, 0x00, 0x00, 0x00, 0x00, 0x00, 0x00, 0x00, 0x00, 0x00, 0x00, 0x00,
   0x00, 0x00, 0x00, 0x00, 0x00, 0x00, 0xf8, 0xde, 0x06, 0xe8, 0xef, 0xee,
   0x7c, 0x7f, 0xef, 0xde, 0x1e, 0x00, 0x00, 0x00, 0x00, 0x00, 0x00, 0x00,
   0x00, 0x00, 0x00, 0x00, 0x00, 0x00, 0x00, 0x00, 0x00, 0x00, 0x00, 0xf8,
   0xfc, 0x03, 0x7c, 0xdf, 0x5f, 0xfd, 0xeb, 0xdd, 0xbd, 0x1b, 0x00, 0x00,
   0x00, 0x00, 0x00, 0x00, 0x00, 0x00, 0x00, 0x00, 0x00, 0x00, 0x00, 0x00,
   0x00, 0x00, 0x00, 0x00, 0xe8, 0xbe, 0x01, 0xd8, 0x7d, 0x55, 0x6f, 0xbf,
   0xf7, 0xf7, 0x1e, 0x00, 0x00, 0x00, 0x00, 0x00, 0x00, 0x00, 0x00, 0x00,
   0x00, 0x00, 0x00, 0x00, 0x00, 0x00, 0x00, 0x00, 0x00, 0x70, 0xbd, 0x01,
   0xfc, 0xeb, 0xf5, 0xed, 0xf6, 0xfe, 0xfe, 0x35, 0x00, 0x00, 0x00, 0x00,
   0x00, 0x00, 0x00, 0x00, 0x00, 0x00, 0x00, 0x00, 0x00, 0x00, 0x00, 0x00,
   0x00, 0x00, 0x50, 0xff, 0x00, 0xf6, 0xbf, 0xfe, 0xbf, 0xdf, 0x43, 0xaf,
   0x6f, 0x00, 0x00, 0x00, 0x00, 0x00, 0x00, 0x00, 0x00, 0x00, 0x00, 0x00,
   0x00, 0x00, 0x00, 0x00, 0x00, 0x00, 0x00, 0x70, 0x3e, 0x50, 0xde, 0xad,
   0xee, 0x7f, 0xdb, 0x02, 0x7c, 0x5d, 0x00, 0x00, 0x00, 0x00, 0x00, 0x00,
   0x00, 0x00, 0x00, 0x00, 0x00, 0x00, 0xc0, 0xff, 0xbf, 0x00, 0x00, 0x00,
   0xa0, 0x3f, 0xfc, 0xfb, 0xeb, 0xff, 0xfe, 0xff, 0x03, 0xe0, 0xfb, 0x00,
   0x00, 0x00, 0x00, 0x00, 0x00, 0x00, 0x00, 0x00, 0x00, 0x00, 0x00, 0xff,
   0xff, 0xff, 0x1f, 0x00, 0x00, 0x20, 0x1f, 0xaf, 0x6f, 0xf5, 0xdf, 0xd5,
   0x6d, 0x01, 0x80, 0x57, 0x00, 0x00, 0x00, 0x00, 0x00, 0x00, 0x00, 0x00,
   0x00, 0x00, 0x00, 0xf8, 0xff, 0xfe, 0xff, 0xff, 0x01, 0x00, 0xa0, 0x8f,
   0xfb, 0xbe, 0xfe, 0x6d, 0x7f, 0xff, 0x00, 0x80, 0x3d, 0x00, 0x00, 0x00,
   0x00, 0x00, 0x00, 0x00, 0x00, 0x00, 0x00, 0x00, 0xf7, 0xee, 0xf7, 0xff,
   0xff, 0x0f, 0x80, 0x2a, 0x4f, 0xff, 0xab, 0xbf, 0xff, 0xed, 0x3b, 0x00,
   0x00, 0x0f, 0x00, 0x00, 0x00, 0x00, 0x00, 0x00, 0x00, 0x00, 0x00, 0x00,
   0xe0, 0xbd, 0xff, 0xbd, 0xff, 0xff, 0x7f, 0xc0, 0xdf, 0xe7, 0xaf, 0xea,
   0xff, 0xbe, 0x7f, 0x07, 0x00, 0x00, 0x00, 0x00, 0x00, 0x00, 0x00, 0x00,
   0x00, 0x00, 0x00, 0x00, 0x00, 0xbc, 0xf7, 0xb6, 0xff, 0xfb, 0xff, 0xff,
   0xe1, 0x97, 0xf3, 0xbf, 0xfc, 0xef, 0xf6, 0xfb, 0x00, 0x00, 0x00, 0x00,
   0x00, 0x00, 0x00, 0x00, 0x00, 0x00, 0x00, 0x00, 0x00, 0x80, 0xf7, 0xdf,
   0xff, 0xbb, 0xff, 0xff, 0xff, 0xef, 0xd6, 0xf9, 0xa5, 0xff, 0xbf, 0xff,
   0x02, 0x00, 0x00, 0x00, 0x00, 0x00, 0x00, 0x00, 0x00, 0x00, 0x00, 0x00,
   0x00, 0x00, 0xe0, 0xbe, 0xba, 0x6d, 0x7f, 0xdf, 0xff, 0xff, 0xff, 0xd7,
   0x7c, 0xab, 0x6f, 0x7d, 0x1b, 0x00, 0x00, 0x00, 0x00, 0x00, 0x00, 0x00,
   0x00, 0x00, 0x00, 0x00, 0x00, 0x00, 0x00, 0xbc, 0xeb, 0xef, 0xfe, 0xed,
   0xfb, 0xff, 0xff, 0xff, 0xd7, 0xbe, 0xf4, 0xfd, 0xf7, 0x1d, 0x00, 0x00,
   0x00, 0x00, 0x00, 0x00, 0x00, 0x00, 0x00, 0x00, 0x00, 0x00, 0x00, 0x00,
   0x75, 0x7f, 0xdd, 0xab, 0xff, 0xff, 0xfe, 0xff, 0xff, 0x77, 0x57, 0xfd,
   0xdb, 0xff, 0x0f, 0x00, 0x00, 0x00, 0x00, 0x00, 0x00, 0x00, 0x00, 0x00,
   0x00, 0x00, 0x00, 0x00, 0xc0, 0xdf, 0xd5, 0xf7, 0xfe, 0xdd, 0xef, 0xff,
   0xff, 0xff, 0xff, 0x95, 0xdf, 0xfe, 0x56, 0x07, 0x00, 0x00, 0x00, 0x00,
   0x00, 0x00, 0x00, 0x00, 0x00, 0x00, 0x00, 0x00, 0x00, 0xa0, 0x7a, 0xbf,
   0xde, 0xbb, 0xbf, 0xfd, 0xfd, 0xff, 0xff, 0xff, 0xab, 0xff, 0xef, 0xff,
   0x06, 0x00, 0x00, 0x00, 0x00, 0x00, 0x00, 0x00, 0x00, 0x00, 0x00, 0x00,
   0x00, 0x00, 0xfc, 0xd7, 0xea, 0x75, 0xef, 0xfa, 0xff, 0xff, 0xff, 0xff,
   0xff, 0xf4, 0xff, 0x1f, 0xfe, 0x03, 0x00, 0x00, 0x00, 0x00, 0x00, 0x00,
   0x00, 0x00, 0x00, 0x00, 0x00, 0x00, 0x00, 0x54, 0x5d, 0x5b, 0xef, 0xfd,
   0xf7, 0xdd, 0xf7, 0xff, 0xff, 0xff, 0x7b, 0xdd, 0x0d, 0xf0, 0x01, 0x00,
   0x00, 0x00, 0x00, 0x00, 0x00, 0x00, 0x00, 0x00, 0x00, 0x00, 0x00, 0x80,
   0xbb, 0xd5, 0xaa, 0xba, 0xd7, 0xdf, 0xff, 0xff, 0xff, 0xff, 0xff, 0xff,
   0xff, 0x07, 0x00, 0x00, 0x00, 0x00, 0x00, 0x00, 0x00, 0x00, 0x00, 0x00,
   0x00, 0x00, 0x00, 0x00, 0x80, 0xb6, 0xaa, 0xaa, 0xb6, 0x7e, 0xbd, 0x7b,
   0xff, 0xff, 0xff, 0xff, 0xff, 0xbb, 0x03, 0x00, 0x00, 0x00, 0x00, 0x00,
   0x00, 0x00, 0x00, 0x00, 0x00, 0x00, 0x00, 0x00, 0x00, 0xe0, 0x5b, 0x55,
   0xed, 0xfa, 0xdb, 0xf7, 0xef, 0xfb, 0xff, 0xff, 0xff, 0x7f, 0xfd, 0x00,
   0x00, 0x00, 0x00, 0x00, 0x00, 0x00, 0x00, 0x00, 0x00, 0x00, 0x00, 0x00,
   0x00, 0x00, 0x58, 0xab, 0x5a, 0xab, 0x56, 0x7b, 0xff, 0xfe, 0xef, 0xff,
   0xff, 0xff, 0x3f, 0x20, 0x00, 0x00, 0x00, 0x00, 0x00, 0x00, 0x00, 0x00,
   0x00, 0x00, 0x00, 0x00, 0x00, 0x00, 0x00, 0x6c, 0x55, 0xd5, 0xda, 0xaa,
   0xef, 0xed, 0xbf, 0xff, 0xff, 0xff, 0xff, 0x7f, 0x00, 0x00, 0x00, 0x00,
   0x00, 0x00, 0x00, 0x00, 0x00, 0x00, 0x00, 0x00, 0x00, 0x00, 0x00, 0x00,
   0xad, 0x55, 0xab, 0xaa, 0x6d, 0xbd, 0xdf, 0xf6, 0xff, 0xff, 0xff, 0xff,
   0xff, 0x00, 0x00, 0x00, 0x00, 0x00, 0x00, 0x00, 0x00, 0x00, 0x00, 0x00,
   0x00, 0x00, 0x00, 0x00, 0x00, 0xbb, 0x5a, 0x55, 0x55, 0x55, 0xf7, 0xfa,
   0x7f, 0xf7, 0xff, 0xff, 0xff, 0xff, 0x03, 0x00, 0x00, 0x00, 0x00, 0x00,
   0x00, 0x00, 0x00, 0x00, 0x00, 0x00, 0x00, 0x00, 0x00, 0x80, 0x56, 0x55,
   0x55, 0x55, 0x6d, 0xdd, 0xb7, 0xfd, 0xdf, 0xff, 0xff, 0xff, 0xff, 0x07,
   0x00, 0x00, 0x00, 0x00, 0x00, 0x00, 0x00, 0x00, 0x00, 0x00, 0x00, 0x00,
   0x00, 0x00, 0xe0, 0x55, 0x55, 0xd5, 0xda, 0xda, 0x77, 0xff, 0xf7, 0xfe,
   0xff, 0xff, 0xff, 0xff, 0x0f, 0x00, 0x00, 0x00, 0x00, 0x00, 0x00, 0x00,
   0x00, 0x00, 0x00, 0x00, 0x00, 0x00, 0x00, 0x50, 0xaf, 0xaa, 0xaa, 0xaa,
   0x2a, 0xed, 0x6d, 0xef, 0xff, 0xff, 0xff, 0xff, 0xff, 0x1f, 0x00, 0x00,
   0x00, 0x00, 0x00, 0x00, 0x00, 0x00, 0x00, 0x00, 0x00, 0x00, 0x00, 0x00,
   0xb0, 0xa9, 0xaa, 0xaa, 0x6a, 0xdb, 0xbe, 0xff, 0xff, 0xdd, 0xff, 0xff,
   0xff, 0xff, 0x3f, 0x00, 0x00, 0x00, 0x00, 0x00, 0x00, 0x00, 0x00, 0x00,
   0x00, 0x00, 0x00, 0x00, 0x00, 0xa8, 0x55, 0x55, 0x55, 0x55, 0xb5, 0x75,
   0xd5, 0xba, 0xff, 0xff, 0xff, 0xff, 0xff, 0x7f, 0x00, 0x00, 0x00, 0x00,
   0x00, 0x00, 0x00, 0x00, 0x00, 0x00, 0x00, 0x00, 0x00, 0x00, 0xbe, 0xaa,
   0xaa, 0xaa, 0x55, 0x55, 0xdd, 0xff, 0xef, 0xfb, 0xff, 0xff, 0xff, 0xff,
   0xff, 0x00, 0x00, 0x00, 0x00, 0x00, 0x00, 0x00, 0x00, 0x00, 0x00, 0x00,
   0x00, 0x00, 0x00, 0x68, 0x55, 0x55, 0x55, 0xb5, 0x55, 0x7b, 0x5b, 0xff,
   0xdf, 0xff, 0xff, 0xff, 0xff, 0xff, 0x01, 0x00, 0x00, 0x00, 0x00, 0x00,
   0x00, 0x00, 0x00, 0x00, 0x00, 0x00, 0x00, 0x00, 0xaf, 0xaa, 0xa4, 0xaa,
   0xaa, 0xb6, 0xee, 0xff, 0xdd, 0xfe, 0xff, 0xff, 0xff, 0xff, 0xff, 0x03,
   0x00, 0x00, 0x00, 0x00, 0x00, 0x00, 0x00, 0x00, 0x00, 0x00, 0x00, 0x00,
   0x80, 0xaa, 0x54, 0x89, 0xaa, 0xaa, 0xaa, 0x5d, 0xd5, 0xfb, 0xfb, 0xff,
   0xff, 0xff, 0xff, 0xff, 0x07, 0x00, 0x00, 0x00, 0x00, 0x00, 0x00, 0x00,
   0x00, 0x00, 0x00, 0x00, 0x00, 0x40, 0x57, 0x25, 0x52, 0x55, 0x55, 0x6d,
   0xed, 0x7f, 0xdf, 0xdf, 0xff, 0xff, 0xff, 0xff, 0xff, 0x0f, 0x00, 0x00,
   0x00, 0x00, 0x00, 0x00, 0x00, 0x00, 0x00, 0x00, 0x00, 0x00, 0x40, 0xad,
   0x4a, 0x02, 0x55, 0x55, 0x55, 0xbd, 0xed, 0x7f, 0xff, 0xff, 0xff, 0xff,
   0xff, 0xff, 0x1f, 0x00, 0x00, 0x00, 0x00, 0x00, 0x00, 0x00, 0x00, 0x00,
   0x00, 0x00, 0x00, 0xe0, 0x2a, 0x25, 0xa9, 0xaa, 0x6a, 0xad, 0xf5, 0xbe,
   0xfd, 0x7d, 0xff, 0xff, 0xff, 0xff, 0xff, 0x3f, 0x00, 0x00, 0x00, 0x00,
   0x00, 0x00, 0x00, 0x00, 0x00, 0x00, 0x00, 0x00, 0x50, 0xab, 0x2a, 0x49,
   0xaa, 0xaa, 0xaa, 0xde, 0xf7, 0xef, 0xf7, 0xff, 0xff, 0xff, 0xff, 0xff,
   0x7f, 0x00, 0x00, 0x00, 0x00, 0x00, 0x00, 0x00, 0x00, 0x00, 0x00, 0x00,
   0x00, 0x70, 0x55, 0x40, 0x92, 0x54, 0x55, 0x6d, 0x75, 0x5d, 0x7d, 0xff,
   0xff, 0xff, 0xff, 0xff, 0xff, 0xff, 0x00, 0x00, 0x00, 0x00, 0x00, 0x00,
   0x00, 0x00, 0x00, 0x00, 0x00, 0x00, 0xd0, 0xaa, 0x4a, 0x12, 0x55, 0x55,
   0xd5, 0xd6, 0xfb, 0xf7, 0xff, 0xff, 0xff, 0xff, 0xff, 0xff, 0xff, 0x00,
   0x00, 0x00, 0x00, 0x00, 0x00, 0x00, 0x00, 0x00, 0x00, 0x00, 0x00, 0xac,
   0xaa, 0x94, 0xa4, 0x54, 0xb5, 0xaa, 0x7e, 0x6f, 0x7f, 0xbb, 0xff, 0xff,
   0xff, 0xff, 0xff, 0xff, 0x01, 0x00, 0x00, 0x00, 0x00, 0x00, 0x00, 0x00,
   0x00, 0x00, 0x00, 0x00, 0xd8, 0x2a, 0x91, 0x88, 0xaa, 0xaa, 0xaa, 0xea,
   0xfd, 0xed, 0xff, 0xff, 0xff, 0xff, 0xff, 0xff, 0xff, 0x03, 0x00, 0x00,
   0x00, 0x00, 0x00, 0x00, 0x00, 0x00, 0x00, 0x00, 0x00, 0xae, 0x4a, 0x4a,
   0x22, 0x55, 0xd5, 0xb6, 0x5f, 0xd7, 0xff, 0xfe, 0xff, 0xff, 0xff, 0xff,
   0xff, 0xff, 0x07, 0x00, 0x00, 0x00, 0x00, 0x00, 0x00, 0x00, 0x00, 0x00,
   0x00, 0x00, 0xb4, 0x9a, 0x90, 0x48, 0x54, 0x55, 0x55, 0xf5, 0xbe, 0xed,
   0xed, 0xff, 0xff, 0xff, 0xff, 0xff, 0xff, 0x07, 0x00, 0x00, 0x00, 0x00,
   0x00, 0x00, 0x00, 0x00, 0x00, 0x00, 0x00, 0x6f, 0x25, 0x45, 0xa2, 0xaa,
   0xaa, 0xaa, 0xde, 0xfb, 0xff, 0xff, 0xff, 0xff, 0xff, 0xff, 0xff, 0xff,
   0x0f, 0x00, 0x00, 0x00, 0x00, 0x00, 0x00, 0x00, 0x00, 0x00, 0x00, 0x00,
   0x59, 0x2d, 0x48, 0x0a, 0x55, 0x55, 0xed, 0x5a, 0x57, 0xbb, 0xdf, 0xff,
   0xff, 0xff, 0xff, 0xff, 0xff, 0x1f, 0x00, 0x00, 0x00, 0x00, 0x00, 0x00,
   0x00, 0x00, 0x00, 0x00, 0x80, 0x57, 0x45, 0x25, 0x51, 0x55, 0x55, 0x95,
   0xef, 0xfd, 0xef, 0xfd, 0xff, 0xff, 0xff, 0xff, 0xff, 0xff, 0x1f, 0x00,
   0x00, 0x00, 0x00, 0x00, 0x00, 0x00, 0x00, 0x00, 0x00, 0x00, 0x5a, 0x15,
   0x48, 0x22, 0x55, 0xd5, 0x5a, 0xbd, 0xdf, 0xfe, 0xff, 0xff, 0xff, 0xff,
   0xff, 0xff, 0xff, 0x3f, 0x00, 0x00, 0x00, 0x00, 0x00, 0x00, 0x00, 0x00,
   0x00, 0x00, 0xc0, 0x57, 0xa5, 0x92, 0x54, 0x55, 0x55, 0xab, 0xeb, 0x7a,
   0x6f, 0xdb, 0xff, 0xff, 0xff, 0xff, 0xff, 0xff, 0x7f, 0x00, 0x00, 0x00,
   0x00, 0x00, 0x00, 0x00, 0x00, 0x00, 0x00, 0x40, 0xad, 0x0a, 0x92, 0x40,
   0x55, 0xad, 0x5a, 0xdf, 0xef, 0xfd, 0xff, 0xff, 0xff, 0xff, 0xff, 0xff,
   0xff, 0x7f, 0x00, 0x00, 0x00, 0x00, 0x00, 0x00, 0x00, 0x00, 0x00, 0x00,
   0xc0, 0xaa, 0x52, 0x49, 0xaa, 0xaa, 0xaa, 0xd6, 0xba, 0xba, 0xf7, 0xbf,
   0xff, 0xff, 0xfd, 0xff, 0xff, 0xff, 0xff, 0x00, 0x00, 0x00, 0x00, 0x00,
   0x00, 0x00, 0x00, 0x00, 0x00, 0x40, 0x57, 0x25, 0x49, 0x92, 0xaa, 0xaa,
   0xaa, 0xf7, 0xf7, 0x5e, 0xfb, 0xff, 0xff, 0xff, 0xff, 0xff, 0xff, 0xff,
   0x00, 0x00, 0x00, 0x00, 0x00, 0x00, 0x00, 0x00, 0x00, 0x00, 0xe0, 0xaa,
   0x52, 0x92, 0xa4, 0xaa, 0xaa, 0x6a, 0xad, 0x5a, 0xf7, 0xff, 0xff, 0xff,
   0xf6, 0xff, 0xff, 0xff, 0xff, 0x01, 0x00, 0x00, 0x00, 0x00, 0x00, 0x00,
   0x00, 0x00, 0x00, 0xd0, 0x56, 0x45, 0x92, 0xa4, 0xaa, 0xaa, 0xd6, 0xfd,
   0xd5, 0xfe, 0x77, 0xff, 0xff, 0xef, 0xff, 0xff, 0xff, 0xff, 0x01, 0x00,
   0x00, 0x00, 0x00, 0x00, 0x00, 0x00, 0x00, 0x00, 0x70, 0xab, 0x92, 0x24,
   0xa9, 0xaa, 0x5a, 0xb5, 0x57, 0x2a, 0x69, 0xff, 0xff, 0xff, 0xff, 0xff,
   0xff, 0xff, 0xff, 0x03, 0x00, 0x00, 0x00, 0x00, 0x00, 0x00, 0x00, 0x00,
   0x00, 0xd0, 0x56, 0x95, 0x24, 0x55, 0x55, 0xd5, 0x6a, 0xfd, 0x6a, 0xfb,
   0xff, 0xff, 0xff, 0xde, 0xff, 0xff, 0xff, 0xff, 0x07, 0x00, 0x00, 0x00,
   0x00, 0x00, 0x00, 0x00, 0x00, 0x00, 0x78, 0xab, 0x52, 0x52, 0xaa, 0xaa,
   0xaa, 0xb6, 0x57, 0x55, 0x75, 0xdb, 0xff, 0xff, 0xff, 0xff, 0xff, 0xff,
   0xff, 0x07, 0x00, 0x00, 0x00, 0x00, 0x00, 0x00, 0x00, 0x00, 0x00, 0xd0,
   0x56, 0x45, 0x4a, 0xaa, 0xaa, 0xaa, 0x6a, 0x7d, 0x55, 0xeb, 0xff, 0xff,
   0xff, 0xbf, 0xff, 0xff, 0xff, 0xff, 0x07, 0x00, 0x00, 0x00, 0x00, 0x00,
   0x00, 0x00, 0x00, 0x00, 0xb8, 0x55, 0x95, 0x24, 0x55, 0x55, 0xb5, 0xdd,
   0x57, 0x55, 0xbd, 0x7f, 0xff, 0xff, 0xff, 0xff, 0xff, 0xff, 0xff, 0x0f,
   0x00, 0x00, 0x00, 0x00, 0x00, 0x00, 0x00, 0x00, 0x00, 0x68, 0xab, 0xaa,
   0x54, 0x55, 0x55, 0x55, 0x75, 0xbd, 0x6d, 0xf5, 0xfb, 0xff, 0xff, 0xff,
   0xff, 0xff, 0xff, 0xff, 0x0f, 0x00, 0x00, 0x00, 0x00, 0x00, 0x00, 0x00,
   0x00, 0x00, 0xbc, 0x5a, 0x95, 0x52, 0x55, 0xb5, 0xaa, 0xda, 0x57, 0x55,
   0x7d, 0xff, 0xff, 0xff, 0x7f, 0xff, 0xff, 0xff, 0xff, 0x1f, 0x00, 0x00,
   0x00, 0x00, 0x00, 0x00, 0x00, 0x00, 0x00, 0xe8, 0x55, 0xb5, 0x56, 0x55,
   0x55, 0xab, 0xb5, 0x5e, 0xd5, 0xfa, 0xef, 0xff, 0xff, 0xff, 0xff, 0xff,
   0xff, 0xff, 0x1f, 0x00, 0x00, 0x00, 0x00, 0x00, 0x00, 0x00, 0x00, 0x00,
   0x5c, 0xb5, 0x4a, 0x55, 0x55, 0x55, 0x6d, 0xdf, 0xfb, 0xb6, 0xef, 0x7d,
   0xff, 0xff, 0xff, 0xff, 0xff, 0xff, 0xff, 0x3f, 0x00, 0x00, 0x00, 0x00,
   0x00, 0x00, 0x00, 0x00, 0x00, 0xf4, 0x56, 0xb5, 0xaa, 0xaa, 0xaa, 0xaa,
   0x74, 0xaf, 0x55, 0xfd, 0xff, 0xff, 0xff, 0xff, 0xff, 0xff, 0xff, 0xff,
   0x3f, 0x00, 0x00, 0x00, 0x00, 0x00, 0x00, 0x00, 0x00, 0x00, 0xae, 0xd5,
   0xaa, 0xaa, 0xaa, 0x6a, 0x55, 0xdf, 0xfa, 0xfe, 0xef, 0xff, 0xff, 0xff,
   0xff, 0xff, 0xff, 0xff, 0xff, 0x3f, 0x00, 0x00, 0x00, 0x00, 0x00, 0x00,
   0x00, 0x00, 0x00, 0x7a, 0xb5, 0xaa, 0xaa, 0xaa, 0x56, 0xd5, 0xda, 0xdf,
   0xef, 0x7e, 0xf7, 0xff, 0xff, 0xff, 0xff, 0xff, 0xff, 0xff, 0x3f, 0x00,
   0x00, 0x00, 0x00, 0x00, 0x00, 0x00, 0x00, 0x00, 0xee, 0xd6, 0x56, 0x55,
   0xad, 0xaa, 0xad, 0x6d, 0xf5, 0xbe, 0xef, 0xbf, 0xff, 0xff, 0xff, 0xff,
   0xff, 0xff, 0xff, 0x7f, 0x00, 0x00, 0x00, 0x00, 0x00, 0x00, 0x00, 0x00,
   0x00, 0xda, 0x55, 0x55, 0xd5, 0xaa, 0x5a, 0xb5, 0xfb, 0xdf, 0xfb, 0xfd,
   0xff, 0xfd, 0xff, 0xff, 0xff, 0xff, 0xff, 0xff, 0x7f, 0x00, 0x00, 0x00,
   0x00, 0x00, 0x00, 0x00, 0x00, 0x00, 0x6e, 0xad, 0xda, 0xaa, 0x6a, 0xd5,
   0x6a, 0xaf, 0xfd, 0xfe, 0xdf, 0xfe, 0xff, 0xff, 0xff, 0xff, 0xff, 0xff,
   0xff, 0x7f, 0x00, 0x00, 0x00, 0x00, 0x00, 0x00, 0x00, 0x00, 0x00, 0xec,
   0x6a, 0xab, 0x5a, 0x55, 0xab, 0xd6, 0xba, 0xd7, 0xb7, 0xff, 0xff, 0xff,
   0xff, 0xff, 0xff, 0xff, 0xff, 0xff, 0x7f, 0x00, 0x00, 0x00, 0x00, 0x00,
   0x00, 0x00, 0x00, 0x00, 0xbf, 0x55, 0x55, 0x6b, 0x55, 0xad, 0xba, 0xef,
   0x7e, 0xff, 0xfe, 0xfb, 0xff, 0xff, 0xff, 0xff, 0xff, 0xff, 0xff, 0xff,
   0x00, 0x00, 0x00, 0x00, 0x00, 0x00, 0x00, 0x00, 0x00, 0x36, 0xa9, 0xb6,
   0xaa, 0xd5, 0xda, 0xea, 0xdd, 0xed, 0xed, 0xb7, 0xbf, 0xff, 0xff, 0xff,
   0xff, 0xff, 0xff, 0xff, 0xff, 0x00, 0x00, 0x00, 0x00, 0x00, 0x00, 0x00,
   0x00, 0x00, 0x4b, 0x64, 0x55, 0x55, 0xad, 0xaa, 0xaa, 0x76, 0x7f, 0xff,
   0xfe, 0xff, 0xff, 0xff, 0xff, 0xff, 0xff, 0xff, 0xff, 0xff, 0x00, 0x00,
   0x00, 0x00, 0x00, 0x00, 0x00, 0x00, 0x00, 0x9e, 0x40, 0x6d, 0x5b, 0xab,
   0xaa, 0xaa, 0xed, 0xea, 0xdb, 0x7f, 0xff, 0xff, 0xff, 0xff, 0xff, 0xff,
   0xff, 0xff, 0xff, 0x00, 0x00, 0x00, 0x00, 0x00, 0x00, 0x00, 0x00, 0x00,
   0x23, 0x92, 0xd5, 0x6a, 0x6d, 0x55, 0x00, 0xa8, 0x7f, 0xff, 0xf6, 0xfb,
   0xff, 0xff, 0xff, 0xff, 0xff, 0xff, 0xff, 0xff, 0x00, 0x00, 0x00, 0x00,
   0x00, 0x00, 0x00, 0x00, 0x00, 0xa7, 0x00, 0xad, 0x56, 0xd5, 0x16, 0x29,
   0x21, 0xed, 0xf7, 0xff, 0xff, 0xff, 0xff, 0xff, 0xff, 0xff, 0xff, 0xff,
   0xff, 0x00, 0x00, 0x00, 0x00, 0x00, 0x00, 0x00, 0x00, 0x00, 0x11, 0xa5,
   0x5a, 0x6d, 0xab, 0x02, 0x00, 0x84, 0xba, 0xdd, 0xef, 0xbf, 0xff, 0xff,
   0xff, 0xff, 0xff, 0xff, 0xff, 0xff, 0x01, 0x00, 0x00, 0x00, 0x00, 0x00,
   0x00, 0x00, 0x00, 0x4a, 0x00, 0xd6, 0xaa, 0x5a, 0x09, 0xa5, 0x10, 0xf4,
   0xff, 0x7e, 0xff, 0xff, 0xff, 0xff, 0xff, 0xff, 0xff, 0xff, 0xff, 0x00,
   0x00, 0x00, 0x00, 0x00, 0x00, 0x00, 0x00, 0x00, 0x91, 0x4a, 0xb5, 0xb5,
   0x55, 0x20, 0x00, 0x42, 0x68, 0xdf, 0xff, 0xfb, 0xff, 0xff, 0xff, 0xff,
   0xff, 0xff, 0xff, 0xff, 0x00, 0x00, 0x00, 0x00, 0x00, 0x00, 0x00, 0x00,
   0x00, 0x2b, 0x09, 0x55, 0xad, 0xb6, 0x42, 0x4a, 0x08, 0xc1, 0xfa, 0xd5,
   0xff, 0xff, 0xff, 0xff, 0xff, 0xff, 0xff, 0xff, 0xff, 0x00, 0x00, 0x00,
   0x00, 0x00, 0x00, 0x00, 0x00, 0x00, 0xa4, 0x24, 0x6d, 0x6b, 0x4d, 0x00,
   0x21, 0x25, 0xaa, 0x7f, 0x6f, 0xff, 0xff, 0xff, 0xff, 0xff, 0xff, 0xff,
   0xff, 0xff, 0x01, 0x00, 0x00, 0x00, 0x00, 0x00, 0x00, 0x00, 0x00, 0x29,
   0x25, 0xd4, 0xda, 0x1a, 0x29, 0x0a, 0x40, 0x80, 0xf7, 0xaa, 0xfa, 0xff,
   0xff, 0xff, 0xff, 0xff, 0xff, 0xff, 0xff, 0x00, 0x00, 0x00, 0x00, 0x00,
   0x00, 0x00, 0x00, 0x00, 0x42, 0x88, 0x5a, 0x57, 0x43, 0x80, 0xa0, 0x8a,
   0xaa, 0xfe, 0xb6, 0xfd, 0xff, 0xff, 0xff, 0xff, 0xff, 0xff, 0xff, 0xff,
   0x01, 0x00, 0x00, 0x00, 0x00, 0x00, 0x00, 0x00, 0x00, 0xac, 0x22, 0x50,
   0x75, 0x0b, 0x15, 0x15, 0x28, 0x00, 0xef, 0xad, 0xf5, 0xff, 0xff, 0xff,
   0xff, 0xff, 0xff, 0xff, 0xff, 0x00, 0x00, 0x00, 0x00, 0x00, 0x00, 0x00,
   0x00, 0x00, 0x42, 0x4a, 0x75, 0xab, 0x00, 0x20, 0xa0, 0x42, 0x55, 0xfe,
   0x7a, 0xfb, 0xff, 0xff, 0xff, 0xff, 0xff, 0xff, 0xff, 0xff, 0x01, 0x00,
   0x00, 0x00, 0x00, 0x00, 0x00, 0x00, 0x00, 0x94, 0x12, 0xa4, 0xda, 0xaa,
   0x4a, 0x25, 0x14, 0x00, 0xfc, 0xab, 0xee, 0xff, 0xff, 0xff, 0xff, 0xff,
   0xff, 0xff, 0xff, 0x00, 0x00, 0x00, 0x00, 0x00, 0x00, 0x00, 0x00, 0x00,
   0x2a, 0xa4, 0x52, 0x0b, 0x00, 0x10, 0x88, 0xa2, 0xaa, 0xfa, 0x6a, 0xf5,
   0xff, 0xff, 0xff, 0xff, 0xff, 0xff, 0xff, 0xff, 0x00, 0x00, 0x00, 0x00,
   0x00, 0x00, 0x00, 0x00, 0x00, 0xd2, 0x4a, 0x04, 0x20, 0x55, 0xa5, 0x52,
   0x08, 0x09, 0xea, 0xaf, 0xfd, 0xff, 0xff, 0xff, 0xff, 0xff, 0xff, 0xff,
   0xff, 0x00, 0x00, 0x00, 0x00, 0x00, 0x00, 0x00, 0x00, 0x00, 0x24, 0x29,
   0xa9, 0x4a, 0x20, 0x11, 0x89, 0x52, 0x52, 0xfa, 0xf5, 0xf6, 0xff, 0xff,
   0xff, 0xff, 0xff, 0xff, 0xff, 0xff, 0x00, 0x00, 0x00, 0x00, 0x00, 0x00,
   0x00, 0x00, 0x00, 0x4a, 0x22, 0x91, 0x88, 0x4a, 0x52, 0x22, 0x44, 0x44,
   0xf0, 0xdf, 0xf6, 0xff, 0xff, 0xff, 0xff, 0xff, 0xff, 0xff, 0xff, 0x00,
   0x00, 0x00, 0x00, 0x00, 0x00, 0x00, 0x00, 0x00, 0x94, 0x4a, 0x4a, 0x12,
   0x90, 0x84, 0x48, 0x89, 0x92, 0xea, 0xd7, 0xfd, 0xff, 0xff, 0xff, 0xff,
   0xff, 0xff, 0xff, 0xff, 0x00, 0x00, 0x00, 0x00, 0x00, 0x00, 0x00, 0x00,
   0x00, 0xa8, 0x54, 0x92, 0xa4, 0x92, 0x94, 0x12, 0x29, 0x24, 0xa8, 0x5f,
   0xff, 0xff, 0xff, 0xff, 0xff, 0xff, 0xff, 0xff, 0xff, 0x00, 0x00, 0x00,
   0x00, 0x00, 0x00, 0x00, 0x00, 0x00, 0x24, 0x89, 0x54, 0xa9, 0x4a, 0x22,
   0x4a, 0xa2, 0x92, 0xe2, 0xff, 0xff, 0xff, 0xff, 0xff, 0xff, 0xff, 0xff,
   0xff, 0xff, 0x00, 0x00, 0x00, 0x00, 0x00, 0x00, 0x00, 0x00, 0x00, 0xa8,
   0x2a, 0x15, 0x85, 0x90, 0xa4, 0x50, 0x0a, 0x52, 0xc8, 0xff, 0xff, 0xff,
   0xff, 0xff, 0xff, 0xff, 0xff, 0xff, 0xff, 0x00, 0x00, 0x00, 0x00, 0x00,
   0x00, 0x00, 0x00, 0x00, 0x48, 0xd2, 0x52, 0x28, 0x25, 0x12, 0x85, 0xa8,
   0x84, 0x92, 0xff, 0xff, 0xff, 0xff, 0xff, 0xff, 0xff, 0xff, 0xff, 0x7f,
   0x00, 0x00, 0x00, 0x00, 0x00, 0x00, 0x00, 0x00, 0x00, 0x90, 0x2a, 0x4a,
   0xa5, 0xa4, 0xa4, 0x94, 0x22, 0xa9, 0x24, 0xff, 0xff, 0xff, 0xff, 0xff,
   0xff, 0xff, 0xff, 0xff, 0x7f, 0x00, 0x00, 0x00, 0x00, 0x00, 0x00, 0x00,
   0x00, 0x00, 0x28, 0xd5, 0x92, 0x08, 0x95, 0x12, 0x29, 0x49, 0x12, 0x49,
   0xff, 0xff, 0xff, 0xff, 0xff, 0xff, 0xff, 0xff, 0xff, 0x7f, 0x00, 0x00,
   0x00, 0x00, 0x00, 0x00, 0x00, 0x00, 0x00, 0x50, 0x15, 0x25, 0x55, 0x21,
   0x24, 0x45, 0x92, 0x54, 0x29, 0xf8, 0xff, 0xfe, 0xff, 0xff, 0xff, 0xff,
   0xff, 0xff, 0x7f, 0x00, 0x00, 0x00, 0x00, 0x00, 0x00, 0x00, 0x00, 0x00,
   0x28, 0xa5, 0x54, 0x92, 0x54, 0x55, 0x28, 0x25, 0x91, 0x44, 0x4b, 0x81,
   0x68, 0xff, 0xff, 0xff, 0xff, 0xff, 0xff, 0x7f, 0x00, 0x00, 0x00, 0x00,
   0x00, 0x00, 0x00, 0x00, 0x00, 0x60, 0x55, 0xa5, 0x94, 0x8a, 0x92, 0x4a,
   0x49, 0x25, 0x15, 0x92, 0xae, 0x4a, 0xff, 0xff, 0xff, 0xff, 0xff, 0xff,
   0x3f, 0x00, 0x00, 0x00, 0x00, 0x00, 0x00, 0x00, 0x00, 0x00, 0x90, 0x2a,
   0x49, 0x29, 0xa9, 0xa4, 0x10, 0x2a, 0x49, 0xa2, 0x54, 0x10, 0x91, 0xfc,
   0xff, 0xff, 0xff, 0xff, 0xff, 0x3f, 0x00, 0x00, 0x00, 0x00, 0x00, 0x00,
   0x00, 0x00, 0x00, 0x50, 0x55, 0x2a, 0x49, 0xaa, 0x2a, 0x55, 0x49, 0xaa,
   0x54, 0x01, 0x65, 0x55, 0xe9, 0xff, 0xff, 0xff, 0xff, 0xff, 0x3f, 0x00,
   0x00, 0x00, 0x00, 0x00, 0x00, 0x00, 0x00, 0x00, 0xa0, 0x52, 0x55, 0x55,
   0x55, 0xa5, 0x52, 0x92, 0x24, 0x95, 0xda, 0xaa, 0xaa, 0xea, 0xff, 0xff,
   0xff, 0xff, 0xff, 0x1f, 0x00, 0x00, 0x00, 0x00, 0x00, 0x00, 0x00, 0x00,
   0x00, 0xa0, 0x4a, 0x92, 0x54, 0x25, 0x49, 0x8a, 0x2a, 0x49, 0xa9, 0x92,
   0x94, 0xaa, 0x8a, 0xff, 0xff, 0xff, 0xff, 0xff, 0x1f, 0x00, 0x00, 0x00,
   0x00, 0x00, 0x00, 0x00, 0x00, 0x00, 0x40, 0x55, 0xa5, 0xaa, 0x4a, 0x2a,
   0x51, 0xa4, 0x52, 0x92, 0x2a, 0xa5, 0x4a, 0xb5, 0xfe, 0xff, 0xff, 0xff,
   0xff, 0x1f, 0x00, 0x00, 0x00, 0x00, 0x00, 0x00, 0x00, 0x00, 0x00, 0x80,
   0x52, 0xaa, 0xaa, 0x54, 0x49, 0x55, 0x29, 0x95, 0xaa, 0xaa, 0xaa, 0x54,
   0xa5, 0xfe, 0xff, 0xff, 0xff, 0xff, 0x0f, 0x00, 0x00, 0x00, 0x00, 0x00,
   0x00, 0x00, 0x00, 0x00, 0x40, 0x95, 0x54, 0x95, 0x92, 0x92, 0xa4, 0x52,
   0xaa, 0x94, 0x54, 0x55, 0x55, 0xaa, 0xfa, 0xff, 0xff, 0xff, 0xff, 0x0f,
   0x00, 0x00, 0x00, 0x00, 0x00, 0x00, 0x00, 0x00, 0x00, 0x80, 0xaa, 0xaa,
   0x2a, 0x25, 0x2a, 0x89, 0xa4, 0x92, 0x52, 0x55, 0x95, 0xaa, 0xaa, 0xfa,
   0xff, 0xff, 0xff, 0xff, 0x0f, 0x00, 0x00, 0x00, 0x00, 0x00, 0x00, 0x00,
   0x00, 0x00, 0x00, 0x55, 0x55, 0x55, 0xaa, 0xa4, 0x2a, 0x55, 0x55, 0xaa,
   0xaa, 0xaa, 0xaa, 0xaa, 0xfa, 0xff, 0xff, 0xff, 0xff, 0x0f, 0x00, 0x00,
   0x00, 0x00, 0x00, 0x00, 0x00, 0x00, 0x00, 0x80, 0x92, 0xaa, 0xa4, 0x4a,
   0x49, 0x52, 0x52, 0xa5, 0x92, 0xaa, 0xaa, 0xaa, 0xaa, 0xf2, 0xff, 0xff,
   0xff, 0xff, 0x07, 0x00, 0x00, 0x00, 0x00, 0x00, 0x00, 0x00, 0x00, 0x00,
   0x00, 0xac, 0xaa, 0xaa, 0x54, 0x55, 0x55, 0x25, 0xad, 0x54, 0xaa, 0xaa,
   0x54, 0x55, 0xed, 0xff, 0xff, 0xff, 0xff, 0x07, 0x00, 0x00, 0x00, 0x00,
   0x00, 0x00, 0x00, 0x00, 0x00, 0x00, 0xaa, 0xaa, 0x4a, 0x29, 0x55, 0x49,
   0x4a, 0xa9, 0xa5, 0x52, 0xad, 0xaa, 0xaa, 0xea, 0xff, 0xff, 0xff, 0xff,
   0x03, 0x00, 0x00, 0x00, 0x00, 0x00, 0x00, 0x00, 0x00, 0x00, 0x00, 0x52,
   0x95, 0x54, 0xa5, 0x24, 0x55, 0x55, 0x55, 0x55, 0x55, 0x55, 0x55, 0x55,
   0xf5, 0xff, 0xff, 0xff, 0xff, 0x03, 0x00, 0x00, 0x00, 0x00, 0x00, 0x00,
   0x00, 0x00, 0x00, 0x00, 0x54, 0x55, 0x95, 0xaa, 0x4a, 0x95, 0x54, 0x55,
   0x95, 0xaa, 0x6a, 0x55, 0xb5, 0xea, 0xff, 0xff, 0xff, 0xff, 0x03, 0x00,
   0x00, 0x00, 0x00, 0x00, 0x00, 0x00, 0x00, 0x00, 0x00, 0x54, 0x55, 0xa9,
   0x54, 0x55, 0x52, 0xa5, 0xaa, 0x55, 0x55, 0xd5, 0xaa, 0xaa, 0xea, 0xff,
   0xff, 0xff, 0xff, 0x01, 0x00, 0x00, 0x00, 0x00, 0x00, 0x00, 0x00, 0x00,
   0x00, 0x00, 0x50, 0x95, 0xaa, 0x4a, 0xa9, 0xaa, 0x2a, 0x55, 0x5d, 0x55,
   0xd5, 0xae, 0xd6, 0xea, 0xff, 0xff, 0xff, 0xff, 0x01, 0x00, 0x00, 0x00,
   0x00, 0x00, 0x00, 0x00, 0x00, 0x00, 0x00, 0xa8, 0xaa, 0xaa, 0x2a, 0x55,
   0x95, 0x54, 0x55, 0xab, 0x52, 0x55, 0x55, 0x55, 0xeb, 0xff, 0xff, 0xff,
   0xff, 0x01, 0x00, 0x00, 0x00, 0x00, 0x00, 0x00, 0x00, 0x00, 0x00, 0x00,
   0xb0, 0x55, 0xa5, 0x54, 0x95, 0x54, 0xa5, 0xaa, 0x6a, 0x55, 0xd5, 0x76,
   0x55, 0xed, 0xff, 0xff, 0xff, 0xff, 0x00, 0x00, 0x00, 0x00, 0x00, 0x00,
   0x00, 0x00, 0x00, 0x00, 0x00, 0x50, 0x55, 0x55, 0x55, 0xa9, 0x52, 0x55,
   0xaa, 0x56, 0x55, 0x55, 0xad, 0xad, 0xea, 0xff, 0xff, 0xff, 0x7f, 0x00,
   0x00, 0x00, 0x00, 0x00, 0x00, 0x00, 0x00, 0x00, 0x00, 0x00, 0x60, 0x55,
   0xaa, 0xaa, 0xaa, 0x2a, 0x55, 0xa9, 0xb4, 0x55, 0x55, 0xab, 0xd5, 0xfa,
   0xff, 0xff, 0xff, 0x7f, 0x00, 0x00, 0x00, 0x00, 0x00, 0x00, 0x00, 0x00,
   0x00, 0x00, 0x00, 0x40, 0x55, 0x55, 0x95, 0x92, 0xaa, 0xaa, 0xaa, 0x6a,
   0xab, 0xaa, 0xba, 0x5a, 0xf5, 0xff, 0xff, 0xff, 0x3f, 0x00, 0x00, 0x00,
   0x00, 0x00, 0x00, 0x00, 0x00, 0x00, 0x00, 0x00, 0xc0, 0xaa, 0xaa, 0x54,
   0x55, 0xa9, 0xa4, 0xaa, 0xaa, 0xae, 0xaa, 0xea, 0x56, 0xfb, 0xff, 0xff,
   0xff, 0x3f, 0x00, 0x00, 0x00, 0x00, 0x00, 0x00, 0x00, 0x00, 0x00, 0x00,
   0x00, 0x80, 0xaa, 0x52, 0x55, 0x55, 0x55, 0x55, 0x55, 0xd5, 0x5a, 0x55,
   0x55, 0xbb, 0xf6, 0xff, 0xff, 0xff, 0x1f, 0x00, 0x00, 0x00, 0x00, 0x00,
   0x00, 0x00, 0x00, 0x00, 0x00, 0x00, 0x00, 0x55, 0x55, 0x55, 0x55, 0xa5,
   0xaa, 0xaa, 0xaa, 0x75, 0xd5, 0x76, 0x6b, 0xfd, 0xff, 0xff, 0xff, 0x1f,
   0x00, 0x00, 0x00, 0x00, 0x00, 0x00, 0x00, 0x00, 0x00, 0x00, 0x00, 0x00,
   0x55, 0x55, 0x55, 0x55, 0x55, 0x55, 0x55, 0x55, 0xab, 0x56, 0xd5, 0x56,
   0xf5, 0xff, 0xff, 0xff, 0x0f, 0x00, 0x00, 0x00, 0x00, 0x00, 0x00, 0x00,
   0x00, 0x00, 0x00, 0x00, 0x00, 0xaa, 0xaa, 0xaa, 0xaa, 0xaa, 0x2a, 0x55,
   0x55, 0xee, 0x5a, 0xd5, 0x5e, 0xfd, 0xff, 0xff, 0xff, 0x07, 0x00, 0x00,
   0x00, 0x00, 0x00, 0x00, 0x00, 0x00, 0x00, 0x00, 0x00, 0x00, 0xaa, 0xaa,
   0xaa, 0xaa, 0xaa, 0xaa, 0xaa, 0xaa, 0xd5, 0xb5, 0xb6, 0xf5, 0xfb, 0xff,
   0xff, 0xff, 0x07, 0x00, 0x00, 0x00, 0x00, 0x00, 0x00, 0x00, 0x00, 0x00,
   0x00, 0x00, 0x00, 0x54, 0x55, 0xfd, 0xaa, 0xaa, 0x54, 0x55, 0x55, 0x5d,
   0xab, 0x6a, 0xaf, 0xfe, 0xff, 0xff, 0xff, 0x03, 0x00, 0x00, 0x00, 0x00,
   0x00, 0x00, 0x00, 0x00, 0x00, 0x00, 0x00, 0x00, 0x54, 0x55, 0xd7, 0xaf,
   0xaa, 0xaa, 0xaa, 0xaa, 0xea, 0xd6, 0xaa, 0xb5, 0xfd, 0xff, 0xff, 0xff,
   0x03, 0x00, 0x00, 0x00, 0x00, 0x00, 0x00, 0x00, 0x00, 0x00, 0x00, 0x00,
   0x00, 0x68, 0xd5, 0x5e, 0xa9, 0xaa, 0xaa, 0xaa, 0xaa, 0xaa, 0xad, 0x6d,
   0x6f, 0xff, 0xff, 0xff, 0xff, 0x01, 0x00, 0x00, 0x00, 0x00, 0x00, 0x00,
   0x00, 0x00, 0x00, 0x00, 0x00, 0x00, 0x50, 0xf5, 0xab, 0x56, 0x55, 0x55,
   0x55, 0x55, 0xbb, 0x56, 0xd5, 0xda, 0xfe, 0xff, 0xff, 0xff, 0x00, 0x00,
   0x00, 0x00, 0x00, 0x00, 0x00, 0x00, 0x00, 0x00, 0x00, 0x00, 0x00, 0x50,
   0xa5, 0x56, 0x55, 0x55, 0x55, 0xd5, 0xb6, 0xea, 0xbd, 0x55, 0xbb, 0xff,
   0xff, 0xff, 0x7f, 0x00, 0x00, 0x00, 0x00, 0x00, 0x00, 0x00, 0x00, 0x00,
   0x00, 0x00, 0x00, 0x00, 0xa0, 0xf6, 0xaa, 0xaa, 0xaa, 0xad, 0xaa, 0xaa,
   0xaa, 0x56, 0xdb, 0xd6, 0xfe, 0xff, 0xff, 0x7f, 0x00, 0x00, 0x00, 0x00,
   0x00, 0x00, 0x00, 0x00, 0x00, 0x00, 0x00, 0x00, 0x00, 0xa0, 0xd5, 0xaa,
   0x6d, 0x55, 0xab, 0xaa, 0xaa, 0xd6, 0xf6, 0xaa, 0xde, 0xff, 0xff, 0xff,
   0x3f, 0x00, 0x00, 0x00, 0x00, 0x00, 0x00, 0x00, 0x00, 0x00, 0x00, 0x00,
   0x00, 0x00, 0x80, 0x76, 0xb5, 0xaa, 0xad, 0xbe, 0x6d, 0x6d, 0xb5, 0x9b,
   0x6d, 0x7b, 0xff, 0xff, 0xff, 0x1f, 0x00, 0x00, 0x00, 0x00, 0x00, 0x00,
   0x00, 0x00, 0x00, 0x00, 0x00, 0x00, 0x00, 0x80, 0xea, 0xaa, 0xaa, 0x5a,
   0xb1, 0x55, 0xab, 0x6a, 0x77, 0xdb, 0xee, 0xfe, 0xff, 0xff, 0x0f, 0x00,
   0x00, 0x00, 0x00, 0x00, 0x00, 0x00, 0x00, 0x00, 0x00, 0x00, 0x00, 0x00,
   0x00, 0xb5, 0x6d, 0xbf, 0x55, 0xd5, 0xab, 0x6a, 0x55, 0xad, 0xaa, 0xda,
   0xfb, 0xff, 0xff, 0x07, 0x00, 0x00, 0x00, 0x00, 0x00, 0x00, 0x00, 0x00,
   0x00, 0x00, 0x00, 0x00, 0x00, 0x00, 0x76, 0xd5, 0xbb, 0xb7, 0xad, 0xee,
   0x5a, 0xdb, 0xfd, 0xb6, 0xbb, 0x56, 0xd5, 0xff, 0x03, 0x00, 0x00, 0x00,
   0x00, 0x00, 0x00, 0x00, 0x00, 0x00, 0x00, 0x00, 0x00, 0x00, 0x00, 0xb4,
   0x55, 0x57, 0x5d, 0xab, 0x9b, 0xd5, 0x56, 0xab, 0x6d, 0xed, 0xad, 0xb7,
   0xff, 0x01, 0x00, 0x00, 0x00, 0x00, 0x00, 0x00, 0x00, 0x00, 0x00, 0x00,
   0x00, 0x00, 0x00, 0x00, 0xe8, 0xf5, 0xab, 0xfa, 0xb6, 0xbe, 0x56, 0xb5,
   0x7e, 0xab, 0xbd, 0x6d, 0xb5, 0xff, 0x00, 0x00, 0x00, 0x00, 0x00, 0x00,
   0x00, 0x00, 0x00, 0x00, 0x00, 0x00, 0x00, 0x00, 0x00, 0x50, 0xab, 0x25,
   0xd1, 0xab, 0x7a, 0xad, 0xd6, 0xd5, 0x76, 0xd7, 0xb7, 0xef, 0x7e, 0x00,
   0x00, 0x00, 0x00, 0x00, 0x00, 0x00, 0x00, 0x00, 0x00, 0x00, 0x00, 0x00,
   0x00, 0x00, 0xb0, 0xb7, 0x4b, 0xa5, 0x5e, 0xeb, 0xea, 0x5a, 0xfd, 0x55,
   0xbd, 0x6e, 0xad, 0x3f, 0x00, 0x00, 0x00, 0x00, 0x00, 0x00, 0x00, 0x00,
   0x00, 0x00, 0x00, 0x00, 0x00, 0x00, 0x00, 0x40, 0xeb, 0x12, 0x54, 0xab,
   0xba, 0xad, 0xd5, 0xab, 0xee, 0xf6, 0xbb, 0xf6, 0x1f, 0x00, 0x00, 0x00,
   0x00, 0x00, 0x00, 0x00, 0x00, 0x00, 0x00, 0x00, 0x00, 0x00, 0x00, 0x00,
   0x40, 0xd7, 0xd7, 0x22, 0xdf, 0xf5, 0x5b, 0xad, 0xfe, 0xad, 0x5d, 0xf7,
   0x56, 0x07, 0x00, 0x00, 0x00, 0x00, 0x00, 0x00, 0x00, 0x00, 0x00, 0x00,
   0x00, 0x00, 0x00, 0x00, 0x00, 0x00, 0x5f, 0x0b, 0x49, 0xb5, 0x5a, 0xb5,
   0x5b, 0xab, 0x5b, 0xfb, 0xaf, 0xbb, 0x03, 0x00, 0x00, 0x00, 0x00, 0x00,
   0x00, 0x00, 0x00, 0x00, 0x00, 0x00, 0x00, 0x00, 0x00, 0x00, 0x00, 0xba,
   0x5e, 0x52, 0xaf, 0xf6, 0xab, 0x6a, 0xff, 0x76, 0x6b, 0xbd, 0xee, 0x01,
   0x00, 0x00, 0x00, 0x00, 0x00, 0x00, 0x00, 0x00, 0x00, 0x00, 0x00, 0x00,
   0x00, 0x00, 0x00, 0x00, 0xec, 0x5a, 0x89, 0xbe, 0xd5, 0xb6, 0xad, 0xd5,
   0xad, 0xbd, 0xf7, 0x35, 0x00, 0x00, 0x00, 0x00, 0x00, 0x00, 0x00, 0x00,
   0x00, 0x00, 0x00, 0x00, 0x00, 0x00, 0x00, 0x00, 0x00, 0xb8, 0x7b, 0xd5,
   0x6b, 0xdd, 0x56, 0x7b, 0xbf, 0x75, 0xf7, 0x56, 0x37, 0x00, 0x00, 0x00,
   0x00, 0x00, 0x00, 0x00, 0x00, 0x00, 0x00, 0x00, 0x00, 0x00, 0x00, 0x00,
   0x00, 0x00, 0xe0, 0xea, 0x7f, 0xdf, 0xea, 0x6d, 0xd5, 0xf5, 0xaf, 0xba,
   0xbf, 0x0d, 0x00, 0x00, 0x00, 0x00, 0x00, 0x00, 0x00, 0x00, 0x00, 0x00,
   0x00, 0x00, 0x00, 0x00, 0x00, 0x00, 0x00, 0xc0, 0xaf, 0xea, 0xab, 0xaf,
   0xdb, 0x5d, 0xdf, 0xfa, 0xf7, 0xb6, 0x03, 0x00, 0x00, 0x00, 0x00, 0x00,
   0x00, 0x00, 0x00, 0x00, 0x00, 0x00, 0x00, 0x00, 0x00, 0x00, 0x00, 0x00,
   0x80, 0xde, 0xbf, 0x6e, 0xfa, 0xaa, 0xea, 0xed, 0x57, 0xdd, 0xdf, 0x00,
   0x00, 0x00, 0x00, 0x00, 0x00, 0x00, 0x00, 0x00, 0x00, 0x00, 0x00, 0x00,
   0x00, 0x00, 0x00, 0x00, 0x00, 0x00, 0x59, 0xd5, 0xda, 0xaa, 0xbb, 0xad,
   0xbd, 0x6d, 0xbf, 0x75, 0x00, 0x00, 0x00, 0x00, 0x00, 0x00, 0x00, 0x00,
   0x00, 0x00, 0x00, 0x00, 0x00, 0x00, 0x00, 0x00, 0x00, 0x00, 0x00, 0xee,
   0x6e, 0xb5, 0xdb, 0xd6, 0xf6, 0xf7, 0xdb, 0xfa, 0x0f, 0x00, 0x00, 0x00,
   0x00, 0x00, 0x00, 0x00, 0x00, 0x00, 0x00, 0x00, 0x00, 0x00, 0x00, 0x00,
   0x00, 0x00, 0x00, 0x00, 0xd8, 0xad, 0x6f, 0x5b, 0xb5, 0xad, 0x6e, 0xdb,
   0xae, 0x05, 0x00, 0x00, 0x00, 0x00, 0x00, 0x00, 0x00, 0x00, 0x00, 0x00,
   0x00, 0x00, 0x00, 0x00, 0x00, 0x00, 0x00, 0x00, 0x00, 0xa0, 0xbe, 0x5a,
   0xed, 0x6f, 0xf7, 0xff, 0x6d, 0xfb, 0x00, 0x00, 0x00, 0x00, 0x00, 0x00,
   0x00, 0x00, 0x00, 0x00, 0x00, 0x00, 0x00, 0x00, 0x00, 0x00, 0x00, 0x00,
   0x00, 0x00, 0x80, 0x75, 0xd5, 0xad, 0xda, 0xde, 0xaa, 0xfb, 0x1f, 0x00,
   0x00, 0x00, 0x00, 0x00, 0x00, 0x00, 0x00, 0x00, 0x00, 0x00, 0x00, 0x00,
   0x00, 0x00, 0x00, 0x00, 0x00, 0x00, 0x00, 0x00, 0xa8, 0xbf, 0xb6, 0xb6,
   0xfd, 0xff, 0x56, 0x03, 0x00, 0x00, 0x00, 0x00, 0x00, 0x00, 0x00, 0x00,
   0x00, 0x00, 0x00, 0x00, 0x00, 0x00, 0x00, 0x00, 0x00, 0x00, 0x00, 0x00,
   0x00, 0xc0, 0xea, 0xed, 0x6e, 0x6b, 0xf7, 0xfe, 0x00, 0x00, 0x00, 0x00,
   0x00, 0x00, 0x00, 0x00, 0x00, 0x00, 0x00, 0x00, 0x00, 0x00, 0x00, 0x00,
   0x00, 0x00, 0x00, 0x00, 0x00, 0x00, 0x00, 0x5c, 0xb7, 0xb5, 0xff, 0xdd,
   0x03, 0x00, 0x00, 0x00, 0x00, 0x00, 0x00, 0x00, 0x00, 0x00, 0x00, 0x00,
   0x00, 0x00, 0x00, 0x00, 0x00, 0x00, 0x00, 0x00, 0x00, 0x00, 0x00, 0x00,
   0x80, 0xb6, 0xf7, 0xda, 0x3f, 0x00, 0x00, 0x00, 0x00, 0x00, 0x00, 0x00,
   0x00, 0x00, 0x00, 0x00, 0x00, 0x00, 0x00, 0x00, 0x00, 0x00, 0x00, 0x00,
   0x00, 0x00, 0x00, 0x00, 0x00, 0x00, 0x00, 0xda, 0x2f, 0x00, 0x00, 0x00,
   0x00, 0x00, 0x00, 0x00, 0x00, 0x00, 0x00, 0x00, 0x00, 0x00, 0x00, 0x00,
   0x00, 0x00, 0x00 };
